<svg width="0" height="0" class="hidden">
  <symbol fill="none" xmlns="http://www.w3.org/2000/svg" viewBox="0 0 40 40" id="send_icon">
    <rect width="40" height="40" rx="20" fill="#20A090"></rect>
    <path fill-rule="evenodd" clip-rule="evenodd"
      d="M15.2401 11.6267L29.8382 18.9239C30.2459 19.1276 30.5035 19.5442 30.5035 20C30.5035 20.4558 30.2459 20.8724 29.8382 21.0761L15.2401 28.3733C14.8171 28.5849 14.3093 28.5291 13.9424 28.2306C13.5755 27.9321 13.4175 27.4464 13.5384 26.9892L15.3897 20L13.5384 13.0108C13.4175 12.5536 13.5755 12.0678 13.9424 11.7694C14.3093 11.4709 14.8171 11.4151 15.2401 11.6267Z"
      fill="white"></path>
    <path d="M20.8829 20.0001H15.3898" stroke="#20A090" stroke-width="1.5" stroke-linecap="round"
      stroke-linejoin="round"></path>
  </symbol>
  <symbol fill="none" xmlns="http://www.w3.org/2000/svg" viewBox="0 0 40 40" id="arrow_down">
    <path opacity="0.5"
      d="M12.75 4C12.75 3.58579 12.4142 3.25 12 3.25C11.5858 3.25 11.25 3.58579 11.25 4L12.75 4ZM11.25 4L11.25 20H12.75L12.75 4L11.25 4Z"
      fill="#1C274C" />
    <path d="M18 14L12 20L6 14" stroke="#1C274C" stroke-width="1.5" stroke-linecap="round"
      stroke-linejoin="round" />
  </symbol>
</svg>